<?xml version="1.0" encoding="UTF-8" standalone="no"?> <svg width="64" height="64" viewBox="0 0 64 64" fill="none" xmlns="http://www.w3.org/2000/svg">
<path d="M60.9201 29.9099C60.8949 29.7527 60.8368 29.6025 60.7496 29.4693C60.6624 29.336 60.548 29.2227 60.4139 29.1368C60.2798 29.0509 60.1291 28.9943 59.9716 28.9707C59.8141 28.9471 59.6534 28.9571 59.5001 28.9999C58.5718 28.9999 57.6816 28.6312 57.0252 27.9748C56.3688 27.3184 56.0001 26.4282 56.0001 25.4999C55.8201 24.4999 57.1501 23.3499 56.1901 22.4999C55.3923 22.1042 54.6973 21.5289 54.1594 20.8193C53.6215 20.1096 53.2555 19.2849 53.0901 18.4099C53.0516 18.237 52.9699 18.0766 52.8528 17.9438C52.7356 17.8109 52.5868 17.7098 52.4201 17.6499C46.4801 19.4899 42.1601 12.9799 47.1501 8.84992C47.3034 8.73755 47.4215 8.58379 47.4906 8.40668C47.5597 8.22957 47.5768 8.03644 47.5401 7.84992C33.3501 -3.24008 9.85005 5.61992 4.70005 22.2299C4.27005 23.2299 5.42005 23.8099 6.22005 23.9699C9.22005 25.0599 14.8801 20.4199 17.1101 22.3999C19.4601 25.1399 13.4701 32.0399 17.1701 35.0099C18.0601 35.9599 21.1701 37.0099 21.4001 35.0099C21.1399 34.031 21.0055 33.0228 21.0001 32.0099C21.2501 17.5499 42.7501 17.5499 43.0001 32.0099C42.9995 33.6425 42.6356 35.2545 41.9347 36.7289C41.2338 38.2034 40.2134 39.5033 38.9477 40.5344C37.682 41.5656 36.2027 42.3021 34.617 42.6904C33.0313 43.0788 31.379 43.1094 29.7801 42.7799C27.6201 42.8599 28.7801 46.1699 29.7801 47.0199C32.9501 50.5699 39.5201 44.2099 42.3801 46.4099C44.4701 48.5099 40.2001 54.4099 41.3801 57.2899C41.5801 58.0699 42.2101 59.2099 43.1701 58.7399C48.7681 56.3889 53.4899 52.3447 56.6732 47.1743C59.8564 42.004 61.3415 35.967 60.9201 29.9099V29.9099Z" fill="url(#paint0_linear)"/>
<path d="M43.81 44.9999C40.64 41.4499 34.07 47.8099 31.21 45.6099C30.21 44.9699 31.14 43.1699 29.84 42.8299C27.819 42.4248 25.9524 41.4601 24.4531 40.0456C22.9537 38.6312 21.882 36.8239 21.36 34.8299C21.2995 34.6136 21.168 34.4239 20.9866 34.2915C20.8052 34.1591 20.5845 34.0916 20.36 34.0999C17.24 34.0999 17.74 31.5299 18.82 28.3099C21.65 21.6799 17.65 17.8799 11.18 21.0799C9.59003 21.6899 8.07003 22.2799 6.94003 22.0799C6.14003 21.8299 5.05003 21.1999 4.69003 22.3899C-2.16997 40.6699 12.4 61.3699 32 60.9999C34.17 60.9999 44.82 60.0599 43.61 57.2699C42.06 53.6699 47.37 48.2399 43.81 44.9999Z" fill="url(#paint1_linear)"/>
<path d="M20.2099 9.78996C19.0799 8.53996 17.0699 11.79 16.2899 12.29C16.1962 12.3829 16.1218 12.4935 16.071 12.6154C16.0203 12.7372 15.9941 12.8679 15.9941 13C15.9941 13.132 16.0203 13.2627 16.071 13.3845C16.1218 13.5064 16.1962 13.617 16.2899 13.71C17.4199 14.96 19.4299 11.71 20.2099 11.21C20.3037 11.117 20.3781 11.0064 20.4288 10.8845C20.4796 10.7627 20.5057 10.632 20.5057 10.5C20.5057 10.3679 20.4796 10.2372 20.4288 10.1154C20.3781 9.99352 20.3037 9.88292 20.2099 9.78996Z" fill="url(#paint2_linear)"/>
<path d="M29.4501 14.1098L25.4501 12.1098C25.217 12.0127 24.9558 12.0074 24.719 12.095C24.4821 12.1825 24.2872 12.3564 24.1733 12.5817C24.0593 12.8071 24.0349 13.0672 24.1048 13.3098C24.1747 13.5524 24.3337 13.7596 24.5501 13.8898L28.5501 15.8898C28.7832 15.9869 29.0444 15.9922 29.2812 15.9046C29.518 15.8171 29.713 15.6432 29.8269 15.4179C29.9409 15.1925 29.9653 14.9324 29.8954 14.6898C29.8255 14.4472 29.6664 14.24 29.4501 14.1098Z" fill="url(#paint3_linear)"/>
<path d="M35.7099 13.2899C35.5216 13.1016 35.2662 12.9958 34.9999 12.9958C34.7336 12.9958 34.4782 13.1016 34.2899 13.2899C34.1016 13.4782 33.9958 13.7336 33.9958 13.9999C33.9958 14.2662 34.1016 14.5216 34.2899 14.7099C34.7599 14.9999 36.3399 17.1199 36.9999 16.9999C39.6099 16.4399 36.4199 14.0899 35.7099 13.2899Z" fill="url(#paint4_linear)"/>
<path d="M37 9C37 8.73478 36.8946 8.48043 36.7071 8.29289C36.5196 8.10536 36.2652 8 36 8H32C31.7348 8 31.4804 8.10536 31.2929 8.29289C31.1054 8.48043 31 8.73478 31 9C31 9.26522 31.1054 9.51957 31.2929 9.70711C31.4804 9.89464 31.7348 10 32 10H36C36.2652 10 36.5196 9.89464 36.7071 9.70711C36.8946 9.51957 37 9.26522 37 9Z" fill="url(#paint5_linear)"/>
<path d="M46.9999 24.9999C49.6099 24.4399 46.4199 22.0899 45.7099 21.2899C45.5216 21.1016 45.2662 20.9958 44.9999 20.9958C44.7336 20.9958 44.4782 21.1016 44.2899 21.2899C44.1016 21.4782 43.9958 21.7336 43.9958 21.9999C43.9958 22.2662 44.1016 22.5216 44.2899 22.7099C44.7599 22.9999 46.3399 25.1199 46.9999 24.9999Z" fill="url(#paint6_linear)"/>
<path d="M55.7099 30.2899C54.6099 29.1099 53.0399 31.7999 52.2899 32.2899C52.1962 32.3829 52.1218 32.4935 52.071 32.6153C52.0203 32.7372 51.9941 32.8679 51.9941 32.9999C51.9941 33.1319 52.0203 33.2626 52.071 33.3845C52.1218 33.5064 52.1962 33.617 52.2899 33.7099C53.3899 34.8899 54.9599 32.1999 55.7099 31.7099C55.8037 31.617 55.8781 31.5064 55.9288 31.3845C55.9796 31.2626 56.0057 31.1319 56.0057 30.9999C56.0057 30.8679 55.9796 30.7372 55.9288 30.6153C55.8781 30.4935 55.8037 30.3829 55.7099 30.2899V30.2899Z" fill="url(#paint7_linear)"/>
<path d="M49.7099 39.7099C50.8899 38.6099 48.1999 37.0399 47.7099 36.2899C47.617 36.1962 47.5064 36.1218 47.3845 36.071C47.2626 36.0203 47.1319 35.9941 46.9999 35.9941C46.8679 35.9941 46.7372 36.0203 46.6153 36.071C46.4935 36.1218 46.3829 36.1962 46.2899 36.2899C45.1099 37.3899 47.7999 38.9599 48.2899 39.7099C48.3829 39.8037 48.4935 39.8781 48.6153 39.9288C48.7372 39.9796 48.8679 40.0057 48.9999 40.0057C49.1319 40.0057 49.2626 39.9796 49.3845 39.9288C49.5064 39.8781 49.617 39.8037 49.7099 39.7099V39.7099Z" fill="url(#paint8_linear)"/>
<path d="M50 47C48.56 47 49.09 49.16 49 50C49 50.2652 49.1054 50.5196 49.2929 50.7071C49.4805 50.8946 49.7348 51 50 51C51.44 51 50.91 48.84 51 48C51 47.7348 50.8947 47.4804 50.7072 47.2929C50.5196 47.1054 50.2653 47 50 47Z" fill="url(#paint9_linear)"/>
<path d="M54 42H50C49.7348 42 49.4804 42.1054 49.2929 42.2929C49.1054 42.4804 49 42.7348 49 43C49 43.2652 49.1054 43.5196 49.2929 43.7071C49.4804 43.8946 49.7348 44 50 44H54C54.2652 44 54.5196 43.8946 54.7071 43.7071C54.8946 43.5196 55 43.2652 55 43C55 42.7348 54.8946 42.4804 54.7071 42.2929C54.5196 42.1054 54.2652 42 54 42Z" fill="url(#paint10_linear)"/>
<path d="M21 18C20.7348 18 20.4804 18.1054 20.2929 18.2929C20.1054 18.4804 20 18.7348 20 19V23C20 23.2652 20.1054 23.5196 20.2929 23.7071C20.4804 23.8946 20.7348 24 21 24C21.2652 24 21.5196 23.8946 21.7071 23.7071C21.8946 23.5196 22 23.2652 22 23V19C22 18.7348 21.8946 18.4804 21.7071 18.2929C21.5196 18.1054 21.2652 18 21 18Z" fill="url(#paint11_linear)"/>
<defs>
<linearGradient id="paint0_linear" x1="4.61005" y1="30.8999" x2="61.0101" y2="30.8999" gradientUnits="userSpaceOnUse">
<stop stop-color="#703D04"/>
<stop offset="0.38" stop-color="#583003"/>
<stop offset="1" stop-color="#2A1702"/>
</linearGradient>
<linearGradient id="paint1_linear" x1="2.95003" y1="40.4599" x2="45.07" y2="40.4599" gradientUnits="userSpaceOnUse">
<stop stop-color="#AC9430"/>
<stop offset="0.36" stop-color="#9F7C21"/>
<stop offset="1" stop-color="#834800"/>
</linearGradient>
<linearGradient id="paint2_linear" x1="15.9999" y1="11.75" x2="20.4999" y2="11.75" gradientUnits="userSpaceOnUse">
<stop stop-color="#FDFBF7"/>
<stop offset="0.35" stop-color="#F5F0DF"/>
<stop offset="1" stop-color="#E3D7A9"/>
</linearGradient>
<linearGradient id="paint3_linear" x1="164.918" y1="67.1439" x2="200.072" y2="67.1439" gradientUnits="userSpaceOnUse">
<stop stop-color="#FDFBF7"/>
<stop offset="0.35" stop-color="#F5F0DF"/>
<stop offset="1" stop-color="#E3D7A9"/>
</linearGradient>
<linearGradient id="paint4_linear" x1="170.436" y1="73.1308" x2="186.573" y2="73.1308" gradientUnits="userSpaceOnUse">
<stop stop-color="#FDFBF7"/>
<stop offset="0.35" stop-color="#F5F0DF"/>
<stop offset="1" stop-color="#E3D7A9"/>
</linearGradient>
<linearGradient id="paint5_linear" x1="217" y1="26" x2="253" y2="26" gradientUnits="userSpaceOnUse">
<stop stop-color="#FDFBF7"/>
<stop offset="0.35" stop-color="#F5F0DF"/>
<stop offset="1" stop-color="#E3D7A9"/>
</linearGradient>
<linearGradient id="paint6_linear" x1="220.577" y1="113.203" x2="236.714" y2="113.203" gradientUnits="userSpaceOnUse">
<stop stop-color="#FDFBF7"/>
<stop offset="0.35" stop-color="#F5F0DF"/>
<stop offset="1" stop-color="#E3D7A9"/>
</linearGradient>
<linearGradient id="paint7_linear" x1="260.597" y1="158.41" x2="276.644" y2="158.41" gradientUnits="userSpaceOnUse">
<stop stop-color="#FDFBF7"/>
<stop offset="0.35" stop-color="#F5F0DF"/>
<stop offset="1" stop-color="#E3D7A9"/>
</linearGradient>
<linearGradient id="paint8_linear" x1="230.552" y1="188.435" x2="246.684" y2="188.435" gradientUnits="userSpaceOnUse">
<stop stop-color="#FDFBF7"/>
<stop offset="0.35" stop-color="#F5F0DF"/>
<stop offset="1" stop-color="#E3D7A9"/>
</linearGradient>
<linearGradient id="paint9_linear" x1="149.284" y1="243" x2="153.462" y2="243" gradientUnits="userSpaceOnUse">
<stop stop-color="#FDFBF7"/>
<stop offset="0.35" stop-color="#F5F0DF"/>
<stop offset="1" stop-color="#E3D7A9"/>
</linearGradient>
<linearGradient id="paint10_linear" x1="343" y1="128" x2="378.82" y2="128" gradientUnits="userSpaceOnUse">
<stop stop-color="#FDFBF7"/>
<stop offset="0.35" stop-color="#F5F0DF"/>
<stop offset="1" stop-color="#E3D7A9"/>
</linearGradient>
<linearGradient id="paint11_linear" x1="60" y1="144" x2="64" y2="144" gradientUnits="userSpaceOnUse">
<stop stop-color="#FDFBF7"/>
<stop offset="0.35" stop-color="#F5F0DF"/>
<stop offset="1" stop-color="#E3D7A9"/>
</linearGradient>
</defs>
</svg>
