<?xml version="1.0" encoding="utf-8"?>
<!-- Generator: Adobe Illustrator 24.0.2, SVG Export Plug-In . SVG Version: 6.00 Build 0)  -->
<svg version="1.1" id="Layer_1" xmlns="http://www.w3.org/2000/svg" xmlns:xlink="http://www.w3.org/1999/xlink" x="0px" y="0px"
	 viewBox="0 0 512 512" style="enable-background:new 0 0 512 512;" xml:space="preserve">
<style type="text/css">
	.st0{fill:#0090BB;}
</style>
<path class="st0" d="M282.2732,57.1086l-0.0649,0.0005V9.2604h-50.9106v48.2833l-0.0605,0.0005l-83.377,117.0313v294.5879h1.3182
	c4.0549,18.7956,21.8985,32.9965,43.2313,32.9965c12.8269,0,24.7025-5.1359,32.9167-13.7322
	c7.655,8.5993,18.7184,13.7322,30.6953,13.7322c12.0812,0,23.3778-5.3911,31.0622-14.2152
	c8.1584,8.822,20.1539,14.2152,32.9587,14.2152c21.1077,0,38.7626-14.2009,42.7751-32.9965h0.9079V174.634L282.2732,57.1086z
	 M239.7203,73.8332l34.0372-0.2909l73.6076,106.2064v19.3609H164.2206v-19.3023L239.7203,73.8332z M347.3114,461.1592
	c-0.0698,13.598-12.2755,24.6401-27.2688,24.6401c-11.3831,0-21.6725-6.5248-25.6034-16.2367l-7.8627-19.4247l-7.3766,19.6143
	c-3.6098,9.5983-12.9242,16.0471-23.1782,16.0471c-10.0443,0-19.0237-5.997-22.8753-15.278l-7.2306-17.4218l-7.7776,17.1847
	c-4.2651,9.4254-14.3643,15.5151-25.7286,15.5151c-15.2409,0-27.6496-11.0298-27.7342-24.6176l0.0009-8.3789h-0.4557v-92.603
	h183.1445v92.603h-0.0554v8.1802C347.3098,461.0422,347.3105,461.1008,347.3114,461.1592z"/>
</svg>
